<mxfile host="app.diagrams.net" agent="Mozilla/5.0 (Macintosh; Intel Mac OS X 10_15_7) AppleWebKit/537.36 (KHTML, like Gecko) Chrome/139.0.0.0 Safari/537.36 Edg/139.0.0.0" version="28.1.0">
  <diagram name="Page-1" id="8Ez09a-e_3OrI_JdHruW">
    <mxGraphModel dx="1226" dy="708" grid="1" gridSize="10" guides="1" tooltips="1" connect="1" arrows="1" fold="1" page="1" pageScale="1" pageWidth="850" pageHeight="1100" math="0" shadow="0">
      <root>
        <mxCell id="0" />
        <mxCell id="1" parent="0" />
        <mxCell id="zkWNeTzoaR8wlNJm_yl3-11" style="edgeStyle=orthogonalEdgeStyle;rounded=0;orthogonalLoop=1;jettySize=auto;html=1;exitX=0.5;exitY=1;exitDx=0;exitDy=0;entryX=0.5;entryY=0;entryDx=0;entryDy=0;" parent="1" source="zkWNeTzoaR8wlNJm_yl3-1" target="zkWNeTzoaR8wlNJm_yl3-2" edge="1">
          <mxGeometry relative="1" as="geometry" />
        </mxCell>
        <mxCell id="zkWNeTzoaR8wlNJm_yl3-1" value="抓取standalone dcs订单" style="rounded=1;whiteSpace=wrap;html=1;fillColor=#dae8fc;strokeColor=#6c8ebf;" parent="1" vertex="1">
          <mxGeometry x="110" y="50" width="190" height="40" as="geometry" />
        </mxCell>
        <mxCell id="zkWNeTzoaR8wlNJm_yl3-12" style="edgeStyle=orthogonalEdgeStyle;rounded=0;orthogonalLoop=1;jettySize=auto;html=1;exitX=0.5;exitY=1;exitDx=0;exitDy=0;entryX=0.5;entryY=0;entryDx=0;entryDy=0;" parent="1" source="zkWNeTzoaR8wlNJm_yl3-2" target="zkWNeTzoaR8wlNJm_yl3-6" edge="1">
          <mxGeometry relative="1" as="geometry" />
        </mxCell>
        <mxCell id="zkWNeTzoaR8wlNJm_yl3-2" value="获取&amp;amp;锁PA景点库存" style="rounded=1;whiteSpace=wrap;html=1;fillColor=#dae8fc;strokeColor=#6c8ebf;" parent="1" vertex="1">
          <mxGeometry x="110" y="140" width="190" height="40" as="geometry" />
        </mxCell>
        <mxCell id="zkWNeTzoaR8wlNJm_yl3-4" value="pfc_order_operation_detail表&lt;br&gt;补入一条数据" style="rounded=1;whiteSpace=wrap;html=1;fillColor=#fff2cc;strokeColor=#d6b656;" parent="1" vertex="1">
          <mxGeometry x="440" y="520" width="190" height="40" as="geometry" />
        </mxCell>
        <mxCell id="zkWNeTzoaR8wlNJm_yl3-14" style="edgeStyle=orthogonalEdgeStyle;rounded=0;orthogonalLoop=1;jettySize=auto;html=1;exitX=1;exitY=0.5;exitDx=0;exitDy=0;" parent="1" source="zkWNeTzoaR8wlNJm_yl3-5" edge="1">
          <mxGeometry relative="1" as="geometry">
            <mxPoint x="440" y="350" as="targetPoint" />
          </mxGeometry>
        </mxCell>
        <mxCell id="zkWNeTzoaR8wlNJm_yl3-5" value="通知core-service补发PA权益" style="rounded=1;whiteSpace=wrap;html=1;fillColor=#dae8fc;strokeColor=#6c8ebf;" parent="1" vertex="1">
          <mxGeometry x="110" y="330" width="190" height="40" as="geometry" />
        </mxCell>
        <mxCell id="zkWNeTzoaR8wlNJm_yl3-13" style="edgeStyle=orthogonalEdgeStyle;rounded=0;orthogonalLoop=1;jettySize=auto;html=1;exitX=0.5;exitY=1;exitDx=0;exitDy=0;entryX=0.5;entryY=0;entryDx=0;entryDy=0;" parent="1" source="zkWNeTzoaR8wlNJm_yl3-6" target="zkWNeTzoaR8wlNJm_yl3-5" edge="1">
          <mxGeometry relative="1" as="geometry" />
        </mxCell>
        <mxCell id="zkWNeTzoaR8wlNJm_yl3-6" value="product_inventory表补入一条数据" style="rounded=1;whiteSpace=wrap;html=1;fillColor=#dae8fc;strokeColor=#6c8ebf;" parent="1" vertex="1">
          <mxGeometry x="110" y="230" width="190" height="40" as="geometry" />
        </mxCell>
        <mxCell id="zkWNeTzoaR8wlNJm_yl3-16" style="edgeStyle=orthogonalEdgeStyle;rounded=0;orthogonalLoop=1;jettySize=auto;html=1;exitX=0.5;exitY=1;exitDx=0;exitDy=0;entryX=0.5;entryY=0;entryDx=0;entryDy=0;" parent="1" source="zkWNeTzoaR8wlNJm_yl3-8" target="zkWNeTzoaR8wlNJm_yl3-4" edge="1">
          <mxGeometry relative="1" as="geometry" />
        </mxCell>
        <mxCell id="zkWNeTzoaR8wlNJm_yl3-8" value="补入库存,权益表数据" style="rounded=1;whiteSpace=wrap;html=1;fillColor=#fff2cc;strokeColor=#d6b656;" parent="1" vertex="1">
          <mxGeometry x="440" y="420" width="190" height="40" as="geometry" />
        </mxCell>
        <mxCell id="zkWNeTzoaR8wlNJm_yl3-15" style="edgeStyle=orthogonalEdgeStyle;rounded=0;orthogonalLoop=1;jettySize=auto;html=1;exitX=0.5;exitY=1;exitDx=0;exitDy=0;entryX=0.5;entryY=0;entryDx=0;entryDy=0;" parent="1" source="zkWNeTzoaR8wlNJm_yl3-10" target="zkWNeTzoaR8wlNJm_yl3-8" edge="1">
          <mxGeometry relative="1" as="geometry" />
        </mxCell>
        <mxCell id="zkWNeTzoaR8wlNJm_yl3-10" value="接收order-service通知,补发权益" style="rounded=1;whiteSpace=wrap;html=1;fillColor=#fff2cc;strokeColor=#d6b656;" parent="1" vertex="1">
          <mxGeometry x="440" y="330" width="190" height="40" as="geometry" />
        </mxCell>
      </root>
    </mxGraphModel>
  </diagram>
</mxfile>
